<?xml version="1.0" encoding="UTF-8"?>
<svg xmlns="http://www.w3.org/2000/svg" width="270" height="72" viewBox="0 0 270 72" fill="none">
  <path d="M48.7162 1.58575H70.1014V70.4142H48.7162V51.0815C48.7162 48.2474 46.4189 45.9869 43.6149 45.9869H26.3176C23.4797 45.9869 21.2162 48.2812 21.2162 51.0815V70.4142H0V1.58575H21.2162V20.9859C21.2162 23.8201 23.5135 26.0806 26.3176 26.0806H43.6149C46.4527 26.0806 48.7162 23.7863 48.7162 20.9859V1.58575ZM80.7432 70.4142H102.128V1.58575H80.7432V70.4142ZM182.466 36.0675C182.466 55.8725 166.284 72 146.419 72C126.554 72 110.372 55.8725 110.372 36.0675C110.372 16.2624 126.52 0 146.419 0C166.318 0 182.466 16.1949 182.466 36.1012V36.0675ZM270 70.4142V1.58575H248.716V32.9634C248.716 36.2699 244.595 37.8557 242.399 35.3589L212.399 1.58575H189.899V70.4142H211.284V39.0703C211.284 35.7638 215.405 34.1781 217.601 36.6748L247.5 70.4142H270ZM161.25 44.5361V27.5989C161.25 24.1237 158.446 21.3233 154.966 21.3233H138.007C134.527 21.3233 131.723 24.1237 131.723 27.5989V44.5361C131.723 48.0112 134.527 50.8116 138.007 50.8116H154.966C158.446 50.8116 161.25 48.0112 161.25 44.5361Z" fill="#FFFFFF"></path>
</svg>
